solid OpenSCAD_Model
  facet normal 0 -1 0.000792079
    outer loop
      vertex 0.00301933 18.1977 10.352
      vertex -2.99898 18.1977 10.352
      vertex -4.35698 18.1937 5.302
    endloop
  endfacet
  facet normal 0.0289376 -0.999557 -0.0069899
    outer loop
      vertex -4.35698 18.1937 5.302
      vertex -2.99898 18.1977 10.352
      vertex -16.693 17.8077 9.43
    endloop
  endfacet
  facet normal 0.0768563 -0.987539 0.137333
    outer loop
      vertex -4.35698 18.1937 5.302
      vertex -16.693 17.8077 9.43
      vertex -16.959 17.2477 5.552
    endloop
  endfacet
  facet normal 0.201908 -0.979405 0
    outer loop
      vertex -32.365 14.0717 5.804
      vertex -16.959 17.2477 5.054
      vertex -16.959 17.2477 5.552
    endloop
  endfacet
  facet normal 0.201908 -0.979405 0
    outer loop
      vertex -16.959 17.2477 5.054
      vertex -32.365 14.0717 5.804
      vertex -32.365 14.0717 4.804
    endloop
  endfacet
  facet normal 0.288198 -0.957571 0
    outer loop
      vertex -52.035 8.15166 5.324
      vertex -32.365 14.0717 4.804
      vertex -32.365 14.0717 5.804
    endloop
  endfacet
  facet normal 0.288198 -0.957571 0
    outer loop
      vertex -32.365 14.0717 4.804
      vertex -52.035 8.15166 5.324
      vertex -52.035 8.15166 3.826
    endloop
  endfacet
  facet normal -0.523558 -0.85199 0
    outer loop
      vertex -52.917 8.69366 3.826
      vertex -52.035 8.15166 5.324
      vertex -52.917 8.69366 5.324
    endloop
  endfacet
  facet normal -0.523558 -0.85199 -0
    outer loop
      vertex -52.035 8.15166 5.324
      vertex -52.917 8.69366 3.826
      vertex -52.035 8.15166 3.826
    endloop
  endfacet
  facet normal -0.990654 0.136396 0
    outer loop
      vertex -52.917 8.69366 3.826
      vertex -52.765 9.79765 5.324
      vertex -52.765 9.79765 3.826
    endloop
  endfacet
  facet normal -0.990654 0.136396 0
    outer loop
      vertex -52.765 9.79765 5.324
      vertex -52.917 8.69366 3.826
      vertex -52.917 8.69366 5.324
    endloop
  endfacet
  facet normal 0.0102026 -0.00140472 0.999947
    outer loop
      vertex -52.917 8.69366 3.826
      vertex -52.765 9.79765 3.826
      vertex -53.765 6.80566 3.832
    endloop
  endfacet
  facet normal -0.0978431 0.0346962 0.994597
    outer loop
      vertex -53.765 6.80566 3.832
      vertex -52.765 9.79765 3.826
      vertex -54.951 9.42365 3.624
    endloop
  endfacet
  facet normal -0.910889 -0.41265 0
    outer loop
      vertex -53.765 6.80566 0
      vertex -54.951 9.42365 3.624
      vertex -54.951 9.42365 0
    endloop
  endfacet
  facet normal -0.910889 -0.41265 0
    outer loop
      vertex -54.951 9.42365 3.624
      vertex -53.765 6.80566 0
      vertex -53.765 6.80566 3.832
    endloop
  endfacet
  facet normal 0 0 -1
    outer loop
      vertex 2.38419e-05 -0.00141525 0
      vertex 4.35702 18.1977 0
      vertex 4.35702 0.000582695 0
    endloop
  endfacet
  facet normal 0 0 -1
    outer loop
      vertex 4.35702 18.1977 0
      vertex 2.38419e-05 -0.00141525 0
      vertex -4.35698 18.1937 0
    endloop
  endfacet
  facet normal 0 -0 -1
    outer loop
      vertex -0.00298023 23.3157 0
      vertex 4.35702 18.1977 0
      vertex -4.35698 18.1937 0
    endloop
  endfacet
  facet normal 0 0 -1
    outer loop
      vertex 4.35702 18.1977 0
      vertex -0.00298023 23.3157 0
      vertex 3.01702 23.3157 0
    endloop
  endfacet
  facet normal 0 0 -1
    outer loop
      vertex -4.35698 18.1937 0
      vertex 2.38419e-05 -0.00141525 0
      vertex -4.35698 -0.00341415 0
    endloop
  endfacet
  facet normal 0 0 -1
    outer loop
      vertex -0.00298023 23.3157 0
      vertex -4.35698 18.1937 0
      vertex -3.02298 23.3137 0
    endloop
  endfacet
  facet normal 0 0 -1
    outer loop
      vertex -4.35698 18.1937 0
      vertex -16.625 22.1617 0
      vertex -3.02298 23.3137 0
    endloop
  endfacet
  facet normal 0 0 -1
    outer loop
      vertex -17.683 17.6497 0
      vertex -16.625 22.1617 0
      vertex -4.35698 18.1937 0
    endloop
  endfacet
  facet normal 0 0 -1
    outer loop
      vertex -17.683 17.6497 0
      vertex -32.241 18.0617 0
      vertex -16.625 22.1617 0
    endloop
  endfacet
  facet normal 0 0 -1
    outer loop
      vertex -33.439 14.3537 0
      vertex -32.241 18.0617 0
      vertex -17.683 17.6497 0
    endloop
  endfacet
  facet normal 0 0 -1
    outer loop
      vertex -54.951 9.42365 0
      vertex -33.439 14.3537 0
      vertex -53.765 6.80566 0
    endloop
  endfacet
  facet normal -0 0 -1
    outer loop
      vertex -33.439 14.3537 0
      vertex -54.951 9.42365 0
      vertex -32.241 18.0617 0
    endloop
  endfacet
  facet normal 0 0 -1
    outer loop
      vertex 33.439 14.3817 0
      vertex 54.957 9.46365 0
      vertex 53.775 6.84566 0
    endloop
  endfacet
  facet normal 0 0 -1
    outer loop
      vertex 33.439 14.3817 0
      vertex 32.241 18.0857 0
      vertex 54.957 9.46365 0
    endloop
  endfacet
  facet normal 0 0 -1
    outer loop
      vertex 17.683 17.6617 0
      vertex 32.241 18.0857 0
      vertex 33.439 14.3817 0
    endloop
  endfacet
  facet normal 0 0 -1
    outer loop
      vertex 17.683 17.6617 0
      vertex 16.625 22.1737 0
      vertex 32.241 18.0857 0
    endloop
  endfacet
  facet normal 0 0 -1
    outer loop
      vertex 4.35702 18.1977 0
      vertex 16.625 22.1737 0
      vertex 17.683 17.6617 0
    endloop
  endfacet
  facet normal -0 0 -1
    outer loop
      vertex 16.625 22.1737 0
      vertex 4.35702 18.1977 0
      vertex 3.01702 23.3157 0
    endloop
  endfacet
  facet normal 0.204758 -0.978813 0
    outer loop
      vertex -33.439 14.3537 0
      vertex -17.683 17.6497 2.3
      vertex -33.439 14.3537 2.3
    endloop
  endfacet
  facet normal 0.204758 -0.978813 0
    outer loop
      vertex -17.683 17.6497 2.3
      vertex -33.439 14.3537 0
      vertex -17.683 17.6497 0
    endloop
  endfacet
  facet normal 0.0407884 -0.999168 0
    outer loop
      vertex -17.683 17.6497 0
      vertex -4.35698 18.1937 2.3
      vertex -17.683 17.6497 2.3
    endloop
  endfacet
  facet normal 0.0407884 -0.999168 0
    outer loop
      vertex -4.35698 18.1937 2.3
      vertex -17.683 17.6497 0
      vertex -4.35698 18.1937 0
    endloop
  endfacet
  facet normal -0.00064221 1 -0.000199149
    outer loop
      vertex -1.83641 23.3144 4.99054
      vertex -1.72986 23.3144 4.64694
      vertex -3.02298 23.3137 5.302
    endloop
  endfacet
  facet normal -0.000605438 1 -5.90584e-05
    outer loop
      vertex -1.8712 23.3144 5.34719
      vertex -1.83641 23.3144 4.99054
      vertex -3.02298 23.3137 5.302
    endloop
  endfacet
  facet normal -0.000610048 1 5.84397e-05
    outer loop
      vertex -1.83641 23.3144 5.71036
      vertex -1.8712 23.3144 5.34719
      vertex -3.02298 23.3137 5.302
    endloop
  endfacet
  facet normal 0.995443 0 -0.0953588
    outer loop
      vertex -1.83641 18.9305 5.71036
      vertex -1.8712 23.3144 5.34719
      vertex -1.83641 23.3144 5.71036
    endloop
  endfacet
  facet normal 0.995443 0 -0.0953588
    outer loop
      vertex -1.8712 23.3144 5.34719
      vertex -1.83641 18.9305 5.71036
      vertex -1.8712 18.9305 5.34719
    endloop
  endfacet
  facet normal 0.955131 0 -0.296185
    outer loop
      vertex -1.72986 18.9305 6.05396
      vertex -1.83641 23.3144 5.71036
      vertex -1.72986 23.3144 6.05396
    endloop
  endfacet
  facet normal 0.955131 0 -0.296185
    outer loop
      vertex -1.83641 23.3144 5.71036
      vertex -1.72986 18.9305 6.05396
      vertex -1.83641 18.9305 5.71036
    endloop
  endfacet
  facet normal 0.292944 -0.951804 -0.0908416
    outer loop
      vertex -1.83641 18.9305 5.71036
      vertex -1.72986 18.9305 6.05396
      vertex -4.35698 18.1937 5.302
    endloop
  endfacet
  facet normal 0.316828 -0.927582 -0.198019
    outer loop
      vertex -1.72986 18.9305 6.05396
      vertex -1.53414 18.9305 6.36711
      vertex -4.35698 18.1937 5.302
    endloop
  endfacet
  facet normal 0.342214 -0.894291 -0.288327
    outer loop
      vertex -1.53414 18.9305 6.36711
      vertex -1.30144 18.9305 6.6433
      vertex -4.35698 18.1937 5.302
    endloop
  endfacet
  facet normal 0.64136 0 -0.76724
    outer loop
      vertex -1.30144 18.9305 6.6433
      vertex -1.02308 23.3144 6.87599
      vertex -1.02308 18.9305 6.87599
    endloop
  endfacet
  facet normal 0.64136 0 -0.76724
    outer loop
      vertex -1.02308 23.3144 6.87599
      vertex -1.30144 18.9305 6.6433
      vertex -1.30144 23.3144 6.6433
    endloop
  endfacet
  facet normal -0.000280274 1 0.000335283
    outer loop
      vertex -1.02308 23.3144 6.87599
      vertex -1.30144 23.3144 6.6433
      vertex -3.02298 23.3137 7.292
    endloop
  endfacet
  facet normal -0.000651686 0.999999 -0.00145023
    outer loop
      vertex -0.00298023 23.3157 7.314
      vertex -1.02308 23.3144 6.87599
      vertex -3.02298 23.3137 7.292
    endloop
  endfacet
  facet normal 0.00706826 -0.999884 -0.0134939
    outer loop
      vertex -0.00298023 23.3157 7.314
      vertex -0.703403 23.3144 7.04344
      vertex -1.02308 23.3144 6.87599
    endloop
  endfacet
  facet normal 0.464007 0 -0.885831
    outer loop
      vertex -1.02308 18.9305 6.87599
      vertex -0.703403 23.3144 7.04344
      vertex -0.703403 18.9305 7.04344
    endloop
  endfacet
  facet normal 0.464007 0 -0.885831
    outer loop
      vertex -0.703403 23.3144 7.04344
      vertex -1.02308 18.9305 6.87599
      vertex -1.02308 23.3144 6.87599
    endloop
  endfacet
  facet normal 0.125738 -0.962584 -0.240046
    outer loop
      vertex -0.703403 18.9305 7.04344
      vertex 0.00301933 18.1977 10.352
      vertex -1.02308 18.9305 6.87599
    endloop
  endfacet
  facet normal 0.219794 -0.939445 -0.262932
    outer loop
      vertex -1.02308 18.9305 6.87599
      vertex 0.00301933 18.1977 10.352
      vertex -1.30144 18.9305 6.6433
    endloop
  endfacet
  facet normal 0.0698423 -0.970703 -0.229909
    outer loop
      vertex -0.359801 18.9305 7.14782
      vertex 0.00301933 18.1977 10.352
      vertex -0.703403 18.9305 7.04344
    endloop
  endfacet
  facet normal 0.0229407 -0.974007 -0.225354
    outer loop
      vertex 0.00336742 18.9305 7.18479
      vertex 0.00301933 18.1977 10.352
      vertex -0.359801 18.9305 7.14782
    endloop
  endfacet
  facet normal -0.0233604 -0.973996 -0.225357
    outer loop
      vertex 0.00336742 18.9305 7.18479
      vertex 0.360016 18.9305 7.14782
      vertex 0.00301933 18.1977 10.352
    endloop
  endfacet
  facet normal -0.0684682 -0.970858 -0.229665
    outer loop
      vertex 0.360016 18.9305 7.14782
      vertex 0.710141 18.9305 7.04344
      vertex 0.00301933 18.1977 10.352
    endloop
  endfacet
  facet normal -0.125752 -0.962575 -0.240073
    outer loop
      vertex 0.710141 18.9305 7.04344
      vertex 1.02982 18.9305 6.87599
      vertex 0.00301933 18.1977 10.352
    endloop
  endfacet
  facet normal -0.222004 -0.93877 -0.263487
    outer loop
      vertex 1.02982 18.9305 6.87599
      vertex 1.30599 18.9305 6.6433
      vertex 0.00301933 18.1977 10.352
    endloop
  endfacet
  facet normal -0.344465 -0.890584 -0.29699
    outer loop
      vertex 1.30599 18.9305 6.6433
      vertex 4.35702 18.1977 5.302
      vertex 0.00301933 18.1977 10.352
    endloop
  endfacet
  facet normal -0.338899 -0.898126 -0.280209
    outer loop
      vertex 1.53435 18.9305 6.36711
      vertex 4.35702 18.1977 5.302
      vertex 1.30599 18.9305 6.6433
    endloop
  endfacet
  facet normal -0.305442 -0.937957 -0.164139
    outer loop
      vertex 1.70614 18.9305 6.04743
      vertex 4.35702 18.1977 5.302
      vertex 1.53435 18.9305 6.36711
    endloop
  endfacet
  facet normal -0.293869 -0.949278 -0.111856
    outer loop
      vertex 1.83444 18.9305 5.71036
      vertex 4.35702 18.1977 5.302
      vertex 1.70614 18.9305 6.04743
    endloop
  endfacet
  facet normal -0.283148 -0.958643 -0.0288239
    outer loop
      vertex 1.87141 18.9305 5.34719
      vertex 4.35702 18.1977 5.302
      vertex 1.83444 18.9305 5.71036
    endloop
  endfacet
  facet normal -0.0401897 -0.999192 0
    outer loop
      vertex 4.35702 18.1977 0
      vertex 17.683 17.6617 2.3
      vertex 4.35702 18.1977 2.3
    endloop
  endfacet
  facet normal -0.0401897 -0.999192 -0
    outer loop
      vertex 17.683 17.6617 2.3
      vertex 4.35702 18.1977 0
      vertex 17.683 17.6617 0
    endloop
  endfacet
  facet normal -0.203805 -0.979011 0
    outer loop
      vertex 17.683 17.6617 0
      vertex 33.439 14.3817 2.3
      vertex 17.683 17.6617 2.3
    endloop
  endfacet
  facet normal -0.203805 -0.979011 -0
    outer loop
      vertex 33.439 14.3817 2.3
      vertex 17.683 17.6617 0
      vertex 33.439 14.3817 0
    endloop
  endfacet
  facet normal -0.347484 -0.937686 0
    outer loop
      vertex 33.439 14.3817 0
      vertex 53.775 6.84566 2.3
      vertex 33.439 14.3817 2.3
    endloop
  endfacet
  facet normal -0.347484 -0.937686 -0
    outer loop
      vertex 53.775 6.84566 2.3
      vertex 33.439 14.3817 0
      vertex 53.775 6.84566 0
    endloop
  endfacet
  facet normal 0.354857 0.934921 -0
    outer loop
      vertex 54.957 9.46365 0
      vertex 32.241 18.0857 2.306
      vertex 54.957 9.46365 3.624
    endloop
  endfacet
  facet normal 0.354857 0.934921 0
    outer loop
      vertex 32.241 18.0857 2.306
      vertex 54.957 9.46365 0
      vertex 32.241 18.0857 0
    endloop
  endfacet
  facet normal 0.251858 0.962088 -0.104666
    outer loop
      vertex 33.005 18.1877 5.082
      vertex 32.241 18.0857 2.306
      vertex 16.625 22.1737 2.306
    endloop
  endfacet
  facet normal 0.233529 0.972184 0.0179819
    outer loop
      vertex 33.005 18.1877 5.082
      vertex 16.625 22.1737 2.306
      vertex 16.319 22.1737 6.28
    endloop
  endfacet
  facet normal 0.120838 0.214547 0.96921
    outer loop
      vertex 33.235 17.1637 5.28
      vertex 33.005 18.1877 5.082
      vertex 16.319 22.1737 6.28
    endloop
  endfacet
  facet normal 0.11104 0.179829 0.977411
    outer loop
      vertex 33.235 17.1637 5.28
      vertex 16.319 22.1737 6.28
      vertex 16.309 21.1037 6.478
    endloop
  endfacet
  facet normal 0.226737 0.973956 0.000309751
    outer loop
      vertex 33.235 17.1637 5.28
      vertex 16.309 21.1037 6.478
      vertex 16.307 21.1037 7.942
    endloop
  endfacet
  facet normal 0.227779 0.973685 0.00733328
    outer loop
      vertex 33.213 17.1577 6.76
      vertex 33.235 17.1637 5.28
      vertex 16.307 21.1037 7.942
    endloop
  endfacet
  facet normal 0.351723 0.936061 0.00902315
    outer loop
      vertex 52.775 9.83566 3.82
      vertex 33.235 17.1637 5.28
      vertex 33.213 17.1577 6.76
    endloop
  endfacet
  facet normal 0.350548 0.936545 0
    outer loop
      vertex 52.775 9.83566 5.324
      vertex 52.775 9.83566 3.82
      vertex 33.213 17.1577 6.76
    endloop
  endfacet
  facet normal 0.990621 0.136637 0
    outer loop
      vertex 52.927 8.73366 5.324
      vertex 52.775 9.83566 3.82
      vertex 52.775 9.83566 5.324
    endloop
  endfacet
  facet normal 0.990621 0.136637 0
    outer loop
      vertex 52.775 9.83566 3.82
      vertex 52.927 8.73366 5.324
      vertex 52.927 8.73366 3.82
    endloop
  endfacet
  facet normal 0.523558 -0.85199 0
    outer loop
      vertex 52.045 8.19166 3.82
      vertex 52.927 8.73366 5.324
      vertex 52.045 8.19166 5.324
    endloop
  endfacet
  facet normal 0.523558 -0.85199 0
    outer loop
      vertex 52.927 8.73366 5.324
      vertex 52.045 8.19166 3.82
      vertex 52.927 8.73366 3.82
    endloop
  endfacet
  facet normal -0.287519 -0.957775 0
    outer loop
      vertex 52.045 8.19166 3.82
      vertex 52.045 8.19166 5.324
      vertex 32.371 14.0977 5.804
    endloop
  endfacet
  facet normal -0.287001 -0.957914 0.00555366
    outer loop
      vertex 52.045 8.19166 3.82
      vertex 32.371 14.0977 5.804
      vertex 32.365 14.0937 4.804
    endloop
  endfacet
  facet normal -0.290065 -0.928654 -0.231223
    outer loop
      vertex 33.439 14.3817 2.3
      vertex 52.045 8.19166 3.82
      vertex 32.365 14.0937 4.804
    endloop
  endfacet
  facet normal -0.201056 -0.979566 0.0051246
    outer loop
      vertex 32.365 14.0937 4.804
      vertex 32.371 14.0977 5.804
      vertex 16.959 17.2597 5.552
    endloop
  endfacet
  facet normal -0.201298 -0.97953 0
    outer loop
      vertex 32.365 14.0937 4.804
      vertex 16.959 17.2597 5.552
      vertex 16.959 17.2597 5.054
    endloop
  endfacet
  facet normal -0.200519 -0.960507 -0.192919
    outer loop
      vertex 17.683 17.6617 2.3
      vertex 32.365 14.0937 4.804
      vertex 16.959 17.2597 5.054
    endloop
  endfacet
  facet normal -0.0742274 -0.997241 0
    outer loop
      vertex 4.35702 18.1977 5.302
      vertex 16.959 17.2597 5.054
      vertex 16.959 17.2597 5.552
    endloop
  endfacet
  facet normal -0.0742274 -0.997241 0
    outer loop
      vertex 16.959 17.2597 5.054
      vertex 4.35702 18.1977 5.302
      vertex 4.35702 18.1977 2.3
    endloop
  endfacet
  facet normal -0.0762431 -0.98744 0.138379
    outer loop
      vertex 16.959 17.2597 5.552
      vertex 16.693 17.8237 9.43
      vertex 4.35702 18.1977 5.302
    endloop
  endfacet
  facet normal -0.0278033 -0.999585 -0.00747662
    outer loop
      vertex 4.35702 18.1977 5.302
      vertex 16.693 17.8237 9.43
      vertex 2.99902 18.1977 10.352
    endloop
  endfacet
  facet normal 0.0673416 0.00611057 0.997711
    outer loop
      vertex 16.693 17.8237 9.43
      vertex 16.303 22.1217 9.43
      vertex 2.99902 18.1977 10.352
    endloop
  endfacet
  facet normal 0.0694105 -0.00093279 0.997588
    outer loop
      vertex 16.303 22.1217 9.43
      vertex 3.06702 23.2577 10.352
      vertex 2.99902 18.1977 10.352
    endloop
  endfacet
  facet normal -0.00713227 0.993331 0.115081
    outer loop
      vertex -0.00298023 23.2757 10.352
      vertex -0.00298023 23.3137 10.024
      vertex -3.06698 23.2537 10.352
    endloop
  endfacet
  facet normal 0.0025483 0.979191 0.202925
    outer loop
      vertex -0.00298023 23.3137 10.024
      vertex -3.02898 23.3137 10.062
      vertex -3.06698 23.2537 10.352
    endloop
  endfacet
  facet normal -0.0987055 0.976966 0.189197
    outer loop
      vertex -3.06698 23.2537 10.352
      vertex -3.02898 23.3137 10.062
      vertex -16.325 22.1617 9.074
    endloop
  endfacet
  facet normal -0.0950288 0.984973 0.144212
    outer loop
      vertex -16.303 22.1117 9.43
      vertex -3.06698 23.2537 10.352
      vertex -16.325 22.1617 9.074
    endloop
  endfacet
  facet normal -0.0694098 -0.000933518 0.997588
    outer loop
      vertex -2.99898 18.1977 10.352
      vertex -3.06698 23.2537 10.352
      vertex -16.303 22.1117 9.43
    endloop
  endfacet
  facet normal -0.241646 0.958765 0.149591
    outer loop
      vertex -16.303 22.1117 9.43
      vertex -16.325 22.1617 9.074
      vertex -32.959 18.1537 7.892
    endloop
  endfacet
  facet normal -0.244628 0.944885 0.2176
    outer loop
      vertex -32.857 18.0797 8.328
      vertex -16.303 22.1117 9.43
      vertex -32.959 18.1537 7.892
    endloop
  endfacet
  facet normal -0.0679139 0.00615391 0.997672
    outer loop
      vertex -16.693 17.8077 9.43
      vertex -16.303 22.1117 9.43
      vertex -32.857 18.0797 8.328
    endloop
  endfacet
  facet normal -0.0680433 -0.00149926 0.997681
    outer loop
      vertex -32.779 14.5397 8.328
      vertex -16.693 17.8077 9.43
      vertex -32.857 18.0797 8.328
    endloop
  endfacet
  facet normal -0.0708817 -0.0015618 0.997484
    outer loop
      vertex -32.779 14.5397 8.328
      vertex -32.857 18.0797 8.328
      vertex -54.957 9.41766 6.744
    endloop
  endfacet
  facet normal -0.0644499 -0.0294121 0.997487
    outer loop
      vertex -53.765 6.80566 6.744
      vertex -32.779 14.5397 8.328
      vertex -54.957 9.41766 6.744
    endloop
  endfacet
  facet normal 0.345798 -0.938309 0
    outer loop
      vertex -32.779 14.5397 8.328
      vertex -53.765 6.80566 6.744
      vertex -53.765 6.80566 6.472
    endloop
  endfacet
  facet normal 0.319638 -0.920882 0.223179
    outer loop
      vertex -32.365 14.0717 5.804
      vertex -32.779 14.5397 8.328
      vertex -53.765 6.80566 6.472
    endloop
  endfacet
  facet normal -0.909745 -0.415167 0
    outer loop
      vertex -53.765 6.80566 6.472
      vertex -54.957 9.41766 6.744
      vertex -54.957 9.41766 6.456
    endloop
  endfacet
  facet normal -0.909745 -0.415167 0
    outer loop
      vertex -54.957 9.41766 6.744
      vertex -53.765 6.80566 6.472
      vertex -53.765 6.80566 6.744
    endloop
  endfacet
  facet normal -0.422407 -0.198186 -0.884474
    outer loop
      vertex -52.765 9.79765 5.324
      vertex -53.765 6.80566 6.472
      vertex -54.957 9.41766 6.456
    endloop
  endfacet
  facet normal -0.314417 0.898155 -0.307342
    outer loop
      vertex -33.207 17.1357 6.76
      vertex -52.765 9.79765 5.324
      vertex -54.957 9.41766 6.456
    endloop
  endfacet
  facet normal -0.256121 0.745982 -0.614746
    outer loop
      vertex -32.959 18.1537 7.892
      vertex -33.207 17.1357 6.76
      vertex -54.957 9.41766 6.456
    endloop
  endfacet
  facet normal -0.130619 0.751243 -0.646972
    outer loop
      vertex -32.959 18.1537 7.892
      vertex -16.309 21.0917 7.942
      vertex -33.207 17.1357 6.76
    endloop
  endfacet
  facet normal -0.228448 0.973526 0.00765129
    outer loop
      vertex -33.207 17.1357 6.76
      vertex -16.309 21.0917 7.942
      vertex -33.231 17.1417 5.28
    endloop
  endfacet
  facet normal -0.227313 0.973822 0
    outer loop
      vertex -16.309 21.0917 7.942
      vertex -16.309 21.0917 6.484
      vertex -33.231 17.1417 5.28
    endloop
  endfacet
  facet normal -0.112616 0.184871 0.976289
    outer loop
      vertex -16.309 21.0917 6.484
      vertex -16.321 22.1617 6.28
      vertex -33.231 17.1417 5.28
    endloop
  endfacet
  facet normal -0.121001 0.214527 0.969194
    outer loop
      vertex -16.321 22.1617 6.28
      vertex -33.005 18.1637 5.082
      vertex -33.231 17.1417 5.28
    endloop
  endfacet
  facet normal -0.154681 0.220771 0.962982
    outer loop
      vertex -33.231 17.1417 5.28
      vertex -33.005 18.1637 5.082
      vertex -52.765 9.79765 3.826
    endloop
  endfacet
  facet normal -0.234212 0.97202 0.0179166
    outer loop
      vertex -16.321 22.1617 6.28
      vertex -16.625 22.1617 2.306
      vertex -33.005 18.1637 5.082
    endloop
  endfacet
  facet normal -0.252545 0.961888 -0.104848
    outer loop
      vertex -16.625 22.1617 2.306
      vertex -32.241 18.0617 2.306
      vertex -33.005 18.1637 5.082
    endloop
  endfacet
  facet normal -0.359089 0.923811 -0.132771
    outer loop
      vertex -33.005 18.1637 5.082
      vertex -32.241 18.0617 2.306
      vertex -54.951 9.42365 3.624
    endloop
  endfacet
  facet normal -0.253944 0.967219 0
    outer loop
      vertex -16.625 22.1617 0
      vertex -32.241 18.0617 2.306
      vertex -16.625 22.1617 2.306
    endloop
  endfacet
  facet normal -0.253944 0.967219 0
    outer loop
      vertex -32.241 18.0617 2.306
      vertex -16.625 22.1617 0
      vertex -32.241 18.0617 0
    endloop
  endfacet
  facet normal -0.0843912 0.996433 0
    outer loop
      vertex -3.02298 23.3137 0
      vertex -16.625 22.1617 2.306
      vertex -3.02298 23.3137 5.302
    endloop
  endfacet
  facet normal -0.0843912 0.996433 0
    outer loop
      vertex -16.625 22.1617 2.306
      vertex -3.02298 23.3137 0
      vertex -16.625 22.1617 0
    endloop
  endfacet
  facet normal -0.000662252 1 0
    outer loop
      vertex -3.02298 23.3137 0
      vertex -0.00298023 23.3157 2.3
      vertex -0.00298023 23.3157 0
    endloop
  endfacet
  facet normal -0.000662252 1 0
    outer loop
      vertex -0.00298023 23.3157 2.3
      vertex -3.02298 23.3137 0
      vertex -3.02298 23.3137 5.302
    endloop
  endfacet
  facet normal 0 1 -0
    outer loop
      vertex 3.01702 23.3157 0
      vertex -0.00298023 23.3157 2.3
      vertex 3.01702 23.3157 2.3
    endloop
  endfacet
  facet normal 0 1 0
    outer loop
      vertex -0.00298023 23.3157 2.3
      vertex 3.01702 23.3157 0
      vertex -0.00298023 23.3157 0
    endloop
  endfacet
  facet normal 0 1 0
    outer loop
      vertex 3.01702 23.3157 5.302
      vertex 3.01702 23.3157 2.3
      vertex -0.00298023 23.3157 2.3
    endloop
  endfacet
  facet normal 0.0855372 0.996335 0
    outer loop
      vertex 3.01702 23.3157 5.302
      vertex 16.319 22.1737 6.28
      vertex 3.01702 23.3157 2.3
    endloop
  endfacet
  facet normal 0.0855372 0.996335 0
    outer loop
      vertex 16.319 22.1737 6.28
      vertex 3.01702 23.3157 5.302
      vertex 3.01702 23.3157 7.292
    endloop
  endfacet
  facet normal 0.000785607 1 0
    outer loop
      vertex 3.01702 23.3157 7.292
      vertex 3.01702 23.3157 5.302
      vertex 1.87141 23.3166 5.34719
    endloop
  endfacet
  facet normal 0.000669848 1 6.81892e-05
    outer loop
      vertex 3.01702 23.3157 7.292
      vertex 1.87141 23.3166 5.34719
      vertex 1.83444 23.3166 5.71036
    endloop
  endfacet
  facet normal 0.000504313 1 0.000191958
    outer loop
      vertex 3.01702 23.3157 7.292
      vertex 1.83444 23.3166 5.71036
      vertex 1.70614 23.3166 6.04743
    endloop
  endfacet
  facet normal 0.000454617 1 0.000244303
    outer loop
      vertex 3.01702 23.3157 7.292
      vertex 1.70614 23.3166 6.04743
      vertex 1.53435 23.3166 6.36711
    endloop
  endfacet
  facet normal 0.000400465 1 0.000331113
    outer loop
      vertex 3.01702 23.3157 7.292
      vertex 1.53435 23.3166 6.36711
      vertex 1.30599 23.3166 6.6433
    endloop
  endfacet
  facet normal 0.000362765 1 0.000430551
    outer loop
      vertex 3.01702 23.3157 7.292
      vertex 1.30599 23.3166 6.6433
      vertex 1.02982 23.3166 6.87599
    endloop
  endfacet
  facet normal 0.000323577 1 0.000617742
    outer loop
      vertex 3.01702 23.3157 7.292
      vertex 1.02982 23.3166 6.87599
      vertex 0.710141 23.3166 7.04344
    endloop
  endfacet
  facet normal 0.000286566 0.999999 0.000961239
    outer loop
      vertex 3.01702 23.3157 7.292
      vertex 0.710141 23.3166 7.04344
      vertex 0.360016 23.3166 7.14782
    endloop
  endfacet
  facet normal 0.000222337 0.999998 0.00214488
    outer loop
      vertex 3.01702 23.3157 7.292
      vertex 0.360016 23.3166 7.14782
      vertex 0.00336742 23.3166 7.18479
    endloop
  endfacet
  facet normal 5.07583e-05 0.999976 0.00696773
    outer loop
      vertex 3.01702 23.3157 7.292
      vertex 0.00336742 23.3166 7.18479
      vertex -0.00298023 23.3157 7.314
    endloop
  endfacet
  facet normal 0.00715678 0.186487 0.982431
    outer loop
      vertex 2.99902 22.2417 7.496
      vertex 3.01702 23.3157 7.292
      vertex -0.00298023 23.3157 7.314
    endloop
  endfacet
  facet normal 0.00524138 0.1813 0.983414
    outer loop
      vertex 2.99902 22.2417 7.496
      vertex -0.00298023 23.3157 7.314
      vertex -0.00298023 22.2417 7.512
    endloop
  endfacet
  facet normal 0.00778171 0.726541 -0.68708
    outer loop
      vertex 3.02702 23.3157 10.062
      vertex 2.99902 22.2417 8.926
      vertex -0.00298023 22.2417 8.892
    endloop
  endfacet
  facet normal 0.00814386 0.726063 -0.68758
    outer loop
      vertex -0.00298023 23.3137 10.024
      vertex 3.02702 23.3157 10.062
      vertex -0.00298023 22.2417 8.892
    endloop
  endfacet
  facet normal -0.0031119 0.980493 0.196528
    outer loop
      vertex 3.06702 23.2577 10.352
      vertex 3.02702 23.3157 10.062
      vertex -0.00298023 23.3137 10.024
    endloop
  endfacet
  facet normal 0.0975888 0.978403 0.18222
    outer loop
      vertex 3.06702 23.2577 10.352
      vertex 16.325 22.1737 9.072
      vertex 3.02702 23.3157 10.062
    endloop
  endfacet
  facet normal 0.011235 0.726474 -0.687102
    outer loop
      vertex 3.02702 23.3157 10.062
      vertex 16.325 22.1737 9.072
      vertex 2.99902 22.2417 8.926
    endloop
  endfacet
  facet normal 0.0112381 0.725986 -0.687617
    outer loop
      vertex 16.325 22.1737 9.072
      vertex 16.307 21.1037 7.942
      vertex 2.99902 22.2417 8.926
    endloop
  endfacet
  facet normal 0.12426 0.719505 -0.68328
    outer loop
      vertex 16.325 22.1737 9.072
      vertex 32.963 18.1797 7.892
      vertex 16.307 21.1037 7.942
    endloop
  endfacet
  facet normal 0.24095 0.958243 0.153993
    outer loop
      vertex 32.963 18.1797 7.892
      vertex 16.325 22.1737 9.072
      vertex 16.303 22.1217 9.43
    endloop
  endfacet
  facet normal 0.243519 0.946411 0.212141
    outer loop
      vertex 32.863 18.1077 8.328
      vertex 32.963 18.1797 7.892
      vertex 16.303 22.1217 9.43
    endloop
  endfacet
  facet normal 0.371491 0.898571 0.233592
    outer loop
      vertex 54.963 9.45766 6.456
      vertex 32.963 18.1797 7.892
      vertex 32.863 18.1077 8.328
    endloop
  endfacet
  facet normal 0.36448 0.931211 0
    outer loop
      vertex 54.963 9.45766 6.744
      vertex 54.963 9.45766 6.456
      vertex 32.863 18.1077 8.328
    endloop
  endfacet
  facet normal 0.910271 -0.414013 0
    outer loop
      vertex 53.775 6.84566 6.744
      vertex 54.963 9.45766 6.456
      vertex 54.963 9.45766 6.744
    endloop
  endfacet
  facet normal 0.910271 -0.414013 0
    outer loop
      vertex 54.963 9.45766 6.456
      vertex 53.775 6.84566 6.744
      vertex 53.775 6.84566 6.472
    endloop
  endfacet
  facet normal -0.614067 -0.789254 0
    outer loop
      vertex 53.775 6.84566 6.472
      vertex 53.775 6.84566 6.744
      vertex 52.045 8.19166 5.324
    endloop
  endfacet
  facet normal 0.53677 -0.249074 -0.806126
    outer loop
      vertex 54.963 9.45766 6.456
      vertex 53.775 6.84566 6.472
      vertex 52.927 8.73366 5.324
    endloop
  endfacet
  facet normal 0.0644844 -0.0293291 0.997488
    outer loop
      vertex 53.775 6.84566 6.744
      vertex 54.963 9.45766 6.744
      vertex 32.783 14.5637 8.328
    endloop
  endfacet
  facet normal -0.321608 -0.920378 0.222424
    outer loop
      vertex 53.775 6.84566 6.744
      vertex 32.783 14.5637 8.328
      vertex 32.371 14.0977 5.804
    endloop
  endfacet
  facet normal 0.0708678 -0.00159972 0.997484
    outer loop
      vertex 54.963 9.45766 6.744
      vertex 32.863 18.1077 8.328
      vertex 32.783 14.5637 8.328
    endloop
  endfacet
  facet normal 0.0680199 -0.00153544 0.997683
    outer loop
      vertex 32.783 14.5637 8.328
      vertex 32.863 18.1077 8.328
      vertex 16.693 17.8237 9.43
    endloop
  endfacet
  facet normal 0.255148 0.745039 -0.616292
    outer loop
      vertex 54.963 9.45766 6.456
      vertex 33.213 17.1577 6.76
      vertex 32.963 18.1797 7.892
    endloop
  endfacet
  facet normal -0.00919015 0.725328 -0.688342
    outer loop
      vertex -0.00298023 22.2417 8.892
      vertex -2.99898 22.2417 8.932
      vertex -3.02898 23.3137 10.062
    endloop
  endfacet
  facet normal 0 1 0
    outer loop
      vertex 2.99902 22.2417 8.926
      vertex -0.00298023 22.2417 7.512
      vertex -0.00298023 22.2417 8.892
    endloop
  endfacet
  facet normal -0 1 0
    outer loop
      vertex -0.00298023 22.2417 7.512
      vertex 2.99902 22.2417 8.926
      vertex 2.99902 22.2417 7.496
    endloop
  endfacet
  facet normal 0 1 -0
    outer loop
      vertex -0.00298023 22.2417 7.512
      vertex -2.99898 22.2417 8.932
      vertex -0.00298023 22.2417 8.892
    endloop
  endfacet
  facet normal 0 1 0
    outer loop
      vertex -2.99898 22.2417 8.932
      vertex -0.00298023 22.2417 7.512
      vertex -2.99898 22.2417 7.496
    endloop
  endfacet
  facet normal -0.0903327 0.184227 0.978724
    outer loop
      vertex -2.99898 22.2417 7.496
      vertex -3.02298 23.3137 7.292
      vertex -16.309 21.0917 6.484
    endloop
  endfacet
  facet normal 0.0851889 0.996365 0
    outer loop
      vertex 2.99902 22.2417 8.926
      vertex 16.309 21.1037 6.478
      vertex 2.99902 22.2417 7.496
    endloop
  endfacet
  facet normal -0.00525188 0.1813 0.983414
    outer loop
      vertex -0.00298023 22.2417 7.512
      vertex -0.00298023 23.3157 7.314
      vertex -2.99898 22.2417 7.496
    endloop
  endfacet
  facet normal 0.0906165 0.184374 0.97867
    outer loop
      vertex 16.309 21.1037 6.478
      vertex 3.01702 23.3157 7.292
      vertex 2.99902 22.2417 7.496
    endloop
  endfacet
  facet normal -0.000705522 0.999976 0.00693058
    outer loop
      vertex -0.00298023 23.3157 7.314
      vertex 0.00336742 23.3166 7.18479
      vertex -0.359801 23.3166 7.14782
    endloop
  endfacet
  facet normal 0.101275 0 -0.994858
    outer loop
      vertex -0.359801 18.9305 7.14782
      vertex 0.00336742 23.3166 7.18479
      vertex 0.00336742 18.9305 7.18479
    endloop
  endfacet
  facet normal 0.101275 0 -0.994858
    outer loop
      vertex 0.00336742 23.3166 7.18479
      vertex -0.359801 18.9305 7.14782
      vertex -0.359801 23.3166 7.14782
    endloop
  endfacet
  facet normal -0.0010217 0.999999 -0.000817368
    outer loop
      vertex -1.55805 23.3144 4.32726
      vertex -1.33188 23.3144 4.04455
      vertex -3.02298 23.3137 5.302
    endloop
  endfacet
  facet normal 0.000323253 0.999999 0.000991413
    outer loop
      vertex -1.33188 23.3144 4.04455
      vertex -0.00298023 23.3157 2.3
      vertex -3.02298 23.3137 5.302
    endloop
  endfacet
  facet normal 0.00162961 0.999997 0.00198652
    outer loop
      vertex -1.05353 23.3144 3.81621
      vertex -0.00298023 23.3157 2.3
      vertex -1.33188 23.3144 4.04455
    endloop
  endfacet
  facet normal 0.000704963 0.999999 0.00134585
    outer loop
      vertex -0.733849 23.3144 3.64876
      vertex -0.00298023 23.3157 2.3
      vertex -1.05353 23.3144 3.81621
    endloop
  endfacet
  facet normal -0.00735953 0.999968 -0.00302418
    outer loop
      vertex -0.390247 23.3166 3.54003
      vertex -0.00298023 23.3157 2.3
      vertex -0.733849 23.3144 3.64876
    endloop
  endfacet
  facet normal -8.4528e-05 1 -0.000752187
    outer loop
      vertex -0.00315475 23.3166 3.49653
      vertex -0.00298023 23.3157 2.3
      vertex -0.390247 23.3166 3.54003
    endloop
  endfacet
  facet normal 8.45256e-05 1 -0.000752162
    outer loop
      vertex 0.383936 23.3166 3.54003
      vertex -0.00298023 23.3157 2.3
      vertex -0.00315475 23.3166 3.49653
    endloop
  endfacet
  facet normal 0.000253054 1 -0.000804747
    outer loop
      vertex 0.383936 23.3166 3.54003
      vertex 0.729712 23.3166 3.64876
      vertex -0.00298023 23.3157 2.3
    endloop
  endfacet
  facet normal 0.000488541 0.999999 -0.000932671
    outer loop
      vertex 0.729712 23.3166 3.64876
      vertex 1.04939 23.3166 3.81621
      vertex -0.00298023 23.3157 2.3
    endloop
  endfacet
  facet normal 0.00111049 0.999998 -0.00136435
    outer loop
      vertex 1.04939 23.3166 3.81621
      vertex 1.32993 23.3166 4.04455
      vertex -0.00298023 23.3157 2.3
    endloop
  endfacet
  facet normal 0.00134034 0.999999 -0.00108257
    outer loop
      vertex 1.55827 23.3166 4.32726
      vertex 3.01702 23.3157 5.302
      vertex 1.32993 23.3166 4.04455
    endloop
  endfacet
  facet normal 0.000962656 0.999999 -0.000517343
    outer loop
      vertex 1.73007 23.3166 4.64694
      vertex 3.01702 23.3157 5.302
      vertex 1.55827 23.3166 4.32726
    endloop
  endfacet
  facet normal 0.000827226 1 -0.000251274
    outer loop
      vertex 1.83444 23.3166 4.99054
      vertex 3.01702 23.3157 5.302
      vertex 1.73007 23.3166 4.64694
    endloop
  endfacet
  facet normal 0.000782408 1 -8.11037e-05
    outer loop
      vertex 1.87141 23.3166 5.34719
      vertex 3.01702 23.3157 5.302
      vertex 1.83444 23.3166 4.99054
    endloop
  endfacet
  facet normal 0.00213219 0.999995 -0.00214497
    outer loop
      vertex 1.32993 23.3166 4.04455
      vertex 3.01702 23.3157 5.302
      vertex -0.00298023 23.3157 2.3
    endloop
  endfacet
  facet normal 0.0836274 0.996497 -0
    outer loop
      vertex 16.625 22.1737 0
      vertex 3.01702 23.3157 2.3
      vertex 16.625 22.1737 2.306
    endloop
  endfacet
  facet normal 0.0836274 0.996497 0
    outer loop
      vertex 3.01702 23.3157 2.3
      vertex 16.625 22.1737 0
      vertex 3.01702 23.3157 0
    endloop
  endfacet
  facet normal -0.0858251 0.996289 0.00656538
    outer loop
      vertex -16.321 22.1617 6.28
      vertex -3.02298 23.3137 5.302
      vertex -16.625 22.1617 2.306
    endloop
  endfacet
  facet normal -0.0863062 0.996269 0
    outer loop
      vertex -3.02298 23.3137 7.292
      vertex -3.02298 23.3137 5.302
      vertex -16.321 22.1617 6.28
    endloop
  endfacet
  facet normal -0.0905348 0.185532 0.978459
    outer loop
      vertex -16.309 21.0917 6.484
      vertex -3.02298 23.3137 7.292
      vertex -16.321 22.1617 6.28
    endloop
  endfacet
  facet normal -0.0860804 0.996288 0
    outer loop
      vertex -2.99898 22.2417 7.496
      vertex -16.309 21.0917 7.942
      vertex -2.99898 22.2417 8.932
    endloop
  endfacet
  facet normal -0.0860804 0.996288 0
    outer loop
      vertex -16.309 21.0917 7.942
      vertex -2.99898 22.2417 7.496
      vertex -16.309 21.0917 6.484
    endloop
  endfacet
  facet normal -0.0116822 0.726596 -0.686965
    outer loop
      vertex -2.99898 22.2417 8.932
      vertex -16.309 21.0917 7.942
      vertex -16.325 22.1617 9.074
    endloop
  endfacet
  facet normal -0.352517 0.935757 0.00951011
    outer loop
      vertex -33.207 17.1357 6.76
      vertex -33.231 17.1417 5.28
      vertex -52.765 9.79765 3.826
    endloop
  endfacet
  facet normal -0.351283 0.936269 0
    outer loop
      vertex -52.765 9.79765 5.324
      vertex -33.207 17.1357 6.76
      vertex -52.765 9.79765 3.826
    endloop
  endfacet
  facet normal -0.883418 0.121631 -0.452525
    outer loop
      vertex -52.765 9.79765 5.324
      vertex -52.917 8.69366 5.324
      vertex -53.765 6.80566 6.472
    endloop
  endfacet
  facet normal -0.364919 0.931039 0
    outer loop
      vertex -54.957 9.41766 6.744
      vertex -32.857 18.0797 8.328
      vertex -54.957 9.41766 6.456
    endloop
  endfacet
  facet normal -0.371821 0.896952 0.239221
    outer loop
      vertex -32.857 18.0797 8.328
      vertex -32.959 18.1537 7.892
      vertex -54.957 9.41766 6.456
    endloop
  endfacet
  facet normal -0.125024 0.720143 -0.682468
    outer loop
      vertex -16.325 22.1617 9.074
      vertex -16.309 21.0917 7.942
      vertex -32.959 18.1537 7.892
    endloop
  endfacet
  facet normal -0.0116891 0.725276 -0.688359
    outer loop
      vertex -3.02898 23.3137 10.062
      vertex -2.99898 22.2417 8.932
      vertex -16.325 22.1617 9.074
    endloop
  endfacet
  facet normal -0.00863447 0.72606 -0.687577
    outer loop
      vertex -0.00298023 23.3137 10.024
      vertex -0.00298023 22.2417 8.892
      vertex -3.02898 23.3137 10.062
    endloop
  endfacet
  facet normal 0.00582414 0.993339 0.115082
    outer loop
      vertex 3.06702 23.2577 10.352
      vertex -0.00298023 23.3137 10.024
      vertex -0.00298023 23.2757 10.352
    endloop
  endfacet
  facet normal 0.0948451 0.984308 0.148801
    outer loop
      vertex 16.303 22.1217 9.43
      vertex 16.325 22.1737 9.072
      vertex 3.06702 23.2577 10.352
    endloop
  endfacet
  facet normal 0.0678842 0.0061598 0.997674
    outer loop
      vertex 16.693 17.8237 9.43
      vertex 32.863 18.1077 8.328
      vertex 16.303 22.1217 9.43
    endloop
  endfacet
  facet normal -0.188452 -0.973617 0.128672
    outer loop
      vertex 16.959 17.2597 5.552
      vertex 32.783 14.5637 8.328
      vertex 16.693 17.8237 9.43
    endloop
  endfacet
  facet normal -0.199809 -0.957211 0.209343
    outer loop
      vertex 32.371 14.0977 5.804
      vertex 32.783 14.5637 8.328
      vertex 16.959 17.2597 5.552
    endloop
  endfacet
  facet normal -0.263659 -0.83971 -0.474732
    outer loop
      vertex 52.045 8.19166 5.324
      vertex 53.775 6.84566 6.744
      vertex 32.371 14.0977 5.804
    endloop
  endfacet
  facet normal -0.00153047 0.00249054 0.999996
    outer loop
      vertex 53.775 6.84566 3.826
      vertex 52.927 8.73366 3.82
      vertex 52.045 8.19166 3.82
    endloop
  endfacet
  facet normal -0.614067 -0.789254 0
    outer loop
      vertex 53.775 6.84566 2.3
      vertex 53.775 6.84566 3.826
      vertex 52.045 8.19166 3.82
    endloop
  endfacet
  facet normal 0.0818008 0.0399058 0.995849
    outer loop
      vertex 53.775 6.84566 3.826
      vertex 54.957 9.46365 3.624
      vertex 52.927 8.73366 3.82
    endloop
  endfacet
  facet normal 0.255572 -0.415894 -0.872763
    outer loop
      vertex 52.927 8.73366 5.324
      vertex 53.775 6.84566 6.472
      vertex 52.045 8.19166 5.324
    endloop
  endfacet
  facet normal 0.091595 0.0126338 0.995716
    outer loop
      vertex 52.927 8.73366 3.82
      vertex 54.957 9.46365 3.624
      vertex 52.775 9.83566 3.82
    endloop
  endfacet
  facet normal 0.106241 0.102029 0.989092
    outer loop
      vertex 52.775 9.83566 3.82
      vertex 54.957 9.46365 3.624
      vertex 33.005 18.1877 5.082
    endloop
  endfacet
  facet normal 0.467318 0.0644576 -0.881737
    outer loop
      vertex 54.963 9.45766 6.456
      vertex 52.927 8.73366 5.324
      vertex 52.775 9.83566 5.324
    endloop
  endfacet
  facet normal 0.31385 0.898621 -0.306558
    outer loop
      vertex 54.963 9.45766 6.456
      vertex 52.775 9.83566 5.324
      vertex 33.213 17.1577 6.76
    endloop
  endfacet
  facet normal 0.129728 0.750059 -0.648523
    outer loop
      vertex 32.963 18.1797 7.892
      vertex 33.213 17.1577 6.76
      vertex 16.307 21.1037 7.942
    endloop
  endfacet
  facet normal 0.0852102 0.996363 0.000116407
    outer loop
      vertex 16.307 21.1037 7.942
      vertex 16.309 21.1037 6.478
      vertex 2.99902 22.2417 8.926
    endloop
  endfacet
  facet normal 0.0900048 0.180406 0.979466
    outer loop
      vertex 16.309 21.1037 6.478
      vertex 16.319 22.1737 6.28
      vertex 3.01702 23.3157 7.292
    endloop
  endfacet
  facet normal 0.154814 0.220962 0.962917
    outer loop
      vertex 33.235 17.1637 5.28
      vertex 52.775 9.83566 3.82
      vertex 33.005 18.1877 5.082
    endloop
  endfacet
  facet normal 0.0836228 0.996477 0.006439
    outer loop
      vertex 16.319 22.1737 6.28
      vertex 16.625 22.1737 2.306
      vertex 3.01702 23.3157 2.3
    endloop
  endfacet
  facet normal 0.253249 0.967401 -0
    outer loop
      vertex 32.241 18.0857 0
      vertex 16.625 22.1737 2.306
      vertex 32.241 18.0857 2.306
    endloop
  endfacet
  facet normal 0.253249 0.967401 0
    outer loop
      vertex 16.625 22.1737 2.306
      vertex 32.241 18.0857 0
      vertex 16.625 22.1737 0
    endloop
  endfacet
  facet normal 0.358439 0.924088 -0.132602
    outer loop
      vertex 33.005 18.1877 5.082
      vertex 54.957 9.46365 3.624
      vertex 32.241 18.0857 2.306
    endloop
  endfacet
  facet normal 0.911412 -0.411495 0
    outer loop
      vertex 53.775 6.84566 2.3
      vertex 54.957 9.46365 3.624
      vertex 53.775 6.84566 3.826
    endloop
  endfacet
  facet normal 0.911412 -0.411495 0
    outer loop
      vertex 54.957 9.46365 3.624
      vertex 53.775 6.84566 2.3
      vertex 54.957 9.46365 0
    endloop
  endfacet
  facet normal 0.911412 -0.411495 0
    outer loop
      vertex 54.957 9.46365 0
      vertex 53.775 6.84566 2.3
      vertex 53.775 6.84566 0
    endloop
  endfacet
  facet normal -0.318659 -0.859901 0.398781
    outer loop
      vertex 53.775 6.84566 2.3
      vertex 52.045 8.19166 3.82
      vertex 33.439 14.3817 2.3
    endloop
  endfacet
  facet normal -0.199847 -0.959997 -0.196132
    outer loop
      vertex 33.439 14.3817 2.3
      vertex 32.365 14.0937 4.804
      vertex 17.683 17.6617 2.3
    endloop
  endfacet
  facet normal -0.0397069 -0.987189 -0.154538
    outer loop
      vertex 17.683 17.6617 2.3
      vertex 16.959 17.2597 5.054
      vertex 4.35702 18.1977 2.3
    endloop
  endfacet
  facet normal -0.994859 0 -0.101275
    outer loop
      vertex 1.87141 18.9305 5.34719
      vertex 1.83444 23.3166 5.71036
      vertex 1.87141 23.3166 5.34719
    endloop
  endfacet
  facet normal -0.994859 -0 -0.101275
    outer loop
      vertex 1.83444 23.3166 5.71036
      vertex 1.87141 18.9305 5.34719
      vertex 1.83444 18.9305 5.71036
    endloop
  endfacet
  facet normal -0.934587 0 -0.355735
    outer loop
      vertex 1.83444 18.9305 5.71036
      vertex 1.70614 23.3166 6.04743
      vertex 1.83444 23.3166 5.71036
    endloop
  endfacet
  facet normal -0.934587 -0 -0.355735
    outer loop
      vertex 1.70614 23.3166 6.04743
      vertex 1.83444 18.9305 5.71036
      vertex 1.70614 18.9305 6.04743
    endloop
  endfacet
  facet normal -0.880868 0 -0.473362
    outer loop
      vertex 1.70614 18.9305 6.04743
      vertex 1.53435 23.3166 6.36711
      vertex 1.70614 23.3166 6.04743
    endloop
  endfacet
  facet normal -0.880868 -0 -0.473362
    outer loop
      vertex 1.53435 23.3166 6.36711
      vertex 1.70614 18.9305 6.04743
      vertex 1.53435 18.9305 6.36711
    endloop
  endfacet
  facet normal -0.770683 0 -0.637218
    outer loop
      vertex 1.53435 18.9305 6.36711
      vertex 1.30599 23.3166 6.6433
      vertex 1.53435 23.3166 6.36711
    endloop
  endfacet
  facet normal -0.770683 -0 -0.637218
    outer loop
      vertex 1.30599 23.3166 6.6433
      vertex 1.53435 18.9305 6.36711
      vertex 1.30599 18.9305 6.6433
    endloop
  endfacet
  facet normal 0 -1 0
    outer loop
      vertex 4.35702 18.1977 5.302
      vertex 2.99902 18.1977 10.352
      vertex 0.00301933 18.1977 10.352
    endloop
  endfacet
  facet normal -0.64434 0 -0.76474
    outer loop
      vertex 1.02982 18.9305 6.87599
      vertex 1.30599 23.3166 6.6433
      vertex 1.30599 18.9305 6.6433
    endloop
  endfacet
  facet normal -0.64434 0 -0.76474
    outer loop
      vertex 1.30599 23.3166 6.6433
      vertex 1.02982 18.9305 6.87599
      vertex 1.02982 23.3166 6.87599
    endloop
  endfacet
  facet normal -0.464005 0 -0.885833
    outer loop
      vertex 0.710141 18.9305 7.04344
      vertex 1.02982 23.3166 6.87599
      vertex 1.02982 18.9305 6.87599
    endloop
  endfacet
  facet normal -0.464005 0 -0.885833
    outer loop
      vertex 1.02982 23.3166 6.87599
      vertex 0.710141 18.9305 7.04344
      vertex 0.710141 23.3166 7.04344
    endloop
  endfacet
  facet normal -0.285696 0 -0.95832
    outer loop
      vertex 0.360016 18.9305 7.14782
      vertex 0.710141 23.3166 7.04344
      vertex 0.710141 18.9305 7.04344
    endloop
  endfacet
  facet normal -0.285696 0 -0.95832
    outer loop
      vertex 0.710141 23.3166 7.04344
      vertex 0.360016 18.9305 7.14782
      vertex 0.360016 23.3166 7.14782
    endloop
  endfacet
  facet normal -0.103107 0 -0.99467
    outer loop
      vertex 0.00336742 18.9305 7.18479
      vertex 0.360016 23.3166 7.14782
      vertex 0.360016 18.9305 7.14782
    endloop
  endfacet
  facet normal -0.103107 0 -0.99467
    outer loop
      vertex 0.360016 23.3166 7.14782
      vertex 0.00336742 18.9305 7.18479
      vertex 0.00336742 23.3166 7.18479
    endloop
  endfacet
  facet normal 0.290666 0 -0.956825
    outer loop
      vertex -0.703403 18.9305 7.04344
      vertex -0.359801 23.3166 7.14782
      vertex -0.359801 18.9305 7.14782
    endloop
  endfacet
  facet normal 0.290666 0 -0.956825
    outer loop
      vertex -0.359801 23.3166 7.14782
      vertex -0.703403 18.9305 7.04344
      vertex -0.703403 23.3144 7.04344
    endloop
  endfacet
  facet normal -0.0231037 0.998218 0.0550142
    outer loop
      vertex -0.00298023 23.3157 7.314
      vertex -0.359801 23.3166 7.14782
      vertex -0.703403 23.3144 7.04344
    endloop
  endfacet
  facet normal -0.00728007 0.186781 0.982375
    outer loop
      vertex -2.99898 22.2417 7.496
      vertex -0.00298023 23.3157 7.314
      vertex -3.02298 23.3137 7.292
    endloop
  endfacet
  facet normal -0.000406613 1 0
    outer loop
      vertex -3.02298 23.3137 7.292
      vertex -1.30144 23.3144 6.6433
      vertex -3.02298 23.3137 5.302
    endloop
  endfacet
  facet normal -0.00118354 0.999999 0.000997173
    outer loop
      vertex -1.30144 23.3144 6.6433
      vertex -1.53414 23.3144 6.36711
      vertex -3.02298 23.3137 5.302
    endloop
  endfacet
  facet normal -0.0008504 0.999999 0.000531503
    outer loop
      vertex -1.53414 23.3144 6.36711
      vertex -1.72986 23.3144 6.05396
      vertex -3.02298 23.3137 5.302
    endloop
  endfacet
  facet normal 0.764749 0 -0.644328
    outer loop
      vertex -1.30144 18.9305 6.6433
      vertex -1.53414 23.3144 6.36711
      vertex -1.30144 23.3144 6.6433
    endloop
  endfacet
  facet normal 0.764749 0 -0.644328
    outer loop
      vertex -1.53414 23.3144 6.36711
      vertex -1.30144 18.9305 6.6433
      vertex -1.53414 18.9305 6.36711
    endloop
  endfacet
  facet normal 0.847997 0 -0.530001
    outer loop
      vertex -1.53414 18.9305 6.36711
      vertex -1.72986 23.3144 6.05396
      vertex -1.53414 23.3144 6.36711
    endloop
  endfacet
  facet normal 0.847997 0 -0.530001
    outer loop
      vertex -1.72986 23.3144 6.05396
      vertex -1.53414 18.9305 6.36711
      vertex -1.72986 18.9305 6.05396
    endloop
  endfacet
  facet normal -0.000660416 1 0.000204794
    outer loop
      vertex -1.72986 23.3144 6.05396
      vertex -1.83641 23.3144 5.71036
      vertex -3.02298 23.3137 5.302
    endloop
  endfacet
  facet normal -0.00074384 1 -0.000399772
    outer loop
      vertex -1.72986 23.3144 4.64694
      vertex -1.55805 23.3144 4.32726
      vertex -3.02298 23.3137 5.302
    endloop
  endfacet
  facet normal 0.995276 -0 0.0970858
    outer loop
      vertex -1.8712 18.9305 5.34719
      vertex -1.83641 23.3144 4.99054
      vertex -1.8712 23.3144 5.34719
    endloop
  endfacet
  facet normal 0.995276 0 0.0970858
    outer loop
      vertex -1.83641 23.3144 4.99054
      vertex -1.8712 18.9305 5.34719
      vertex -1.83641 18.9305 4.99054
    endloop
  endfacet
  facet normal 0.284535 -0.958278 -0.0272571
    outer loop
      vertex -1.8712 18.9305 5.34719
      vertex -1.83641 18.9305 5.71036
      vertex -4.35698 18.1937 5.302
    endloop
  endfacet
  facet normal 0.0402975 -0.987141 -0.154686
    outer loop
      vertex -4.35698 18.1937 2.3
      vertex -16.959 17.2477 5.054
      vertex -17.683 17.6497 2.3
    endloop
  endfacet
  facet normal 0.200856 -0.960162 -0.194283
    outer loop
      vertex -17.683 17.6497 2.3
      vertex -32.365 14.0717 4.804
      vertex -33.439 14.3537 2.3
    endloop
  endfacet
  facet normal 0.348121 -0.93745 0
    outer loop
      vertex -53.765 6.80566 0
      vertex -33.439 14.3537 2.3
      vertex -53.765 6.80566 3.832
    endloop
  endfacet
  facet normal 0.348121 -0.93745 0
    outer loop
      vertex -33.439 14.3537 2.3
      vertex -53.765 6.80566 0
      vertex -33.439 14.3537 0
    endloop
  endfacet
  facet normal -0.355514 0.934671 0
    outer loop
      vertex -54.951 9.42365 0
      vertex -32.241 18.0617 2.306
      vertex -32.241 18.0617 0
    endloop
  endfacet
  facet normal -0.355514 0.934671 0
    outer loop
      vertex -32.241 18.0617 2.306
      vertex -54.951 9.42365 0
      vertex -54.951 9.42365 3.624
    endloop
  endfacet
  facet normal 0.137553 -0.172448 0.975367
    outer loop
      vertex -33.439 14.3537 2.3
      vertex -52.035 8.15166 3.826
      vertex -53.765 6.80566 3.832
    endloop
  endfacet
  facet normal -0.110559 0.112888 0.987438
    outer loop
      vertex -52.765 9.79765 3.826
      vertex -33.005 18.1637 5.082
      vertex -54.951 9.42365 3.624
    endloop
  endfacet
  facet normal -0.255572 -0.415894 -0.872763
    outer loop
      vertex -52.917 8.69366 5.324
      vertex -52.035 8.15166 5.324
      vertex -53.765 6.80566 6.472
    endloop
  endfacet
  facet normal 0.00153047 0.00249054 0.999996
    outer loop
      vertex -52.035 8.15166 3.826
      vertex -52.917 8.69366 3.826
      vertex -53.765 6.80566 3.832
    endloop
  endfacet
  facet normal 0.252748 -0.795082 -0.551329
    outer loop
      vertex -52.035 8.15166 5.324
      vertex -32.365 14.0717 5.804
      vertex -53.765 6.80566 6.472
    endloop
  endfacet
  facet normal 0.290953 -0.928829 -0.229398
    outer loop
      vertex -33.439 14.3537 2.3
      vertex -32.365 14.0717 4.804
      vertex -52.035 8.15166 3.826
    endloop
  endfacet
  facet normal 0.20069 -0.95681 0.21033
    outer loop
      vertex -32.365 14.0717 5.804
      vertex -16.959 17.2477 5.552
      vertex -32.779 14.5397 8.328
    endloop
  endfacet
  facet normal 0.201113 -0.960356 -0.193053
    outer loop
      vertex -17.683 17.6497 2.3
      vertex -16.959 17.2477 5.054
      vertex -32.365 14.0717 4.804
    endloop
  endfacet
  facet normal 0.0748567 -0.997194 0
    outer loop
      vertex -16.959 17.2477 5.054
      vertex -4.35698 18.1937 5.302
      vertex -16.959 17.2477 5.552
    endloop
  endfacet
  facet normal 0.0748567 -0.997194 0
    outer loop
      vertex -4.35698 18.1937 5.302
      vertex -16.959 17.2477 5.054
      vertex -4.35698 18.1937 2.3
    endloop
  endfacet
  facet normal 0.189059 -0.973636 0.127629
    outer loop
      vertex -16.959 17.2477 5.552
      vertex -16.693 17.8077 9.43
      vertex -32.779 14.5397 8.328
    endloop
  endfacet
  facet normal -0.0673483 0.00610266 0.997711
    outer loop
      vertex -2.99898 18.1977 10.352
      vertex -16.303 22.1117 9.43
      vertex -16.693 17.8077 9.43
    endloop
  endfacet
  facet normal 0 0 1
    outer loop
      vertex 3.06702 23.2577 10.352
      vertex 0.00301933 18.1977 10.352
      vertex 2.99902 18.1977 10.352
    endloop
  endfacet
  facet normal 0 0 1
    outer loop
      vertex -0.00298023 23.2757 10.352
      vertex 0.00301933 18.1977 10.352
      vertex 3.06702 23.2577 10.352
    endloop
  endfacet
  facet normal 0 0 1
    outer loop
      vertex -0.00298023 23.2757 10.352
      vertex -2.99898 18.1977 10.352
      vertex 0.00301933 18.1977 10.352
    endloop
  endfacet
  facet normal 0 -0 1
    outer loop
      vertex -2.99898 18.1977 10.352
      vertex -0.00298023 23.2757 10.352
      vertex -3.06698 23.2537 10.352
    endloop
  endfacet
  facet normal 0.345168 -0.890208 -0.297302
    outer loop
      vertex -1.30144 18.9305 6.6433
      vertex 0.00301933 18.1977 10.352
      vertex -4.35698 18.1937 5.302
    endloop
  endfacet
  facet normal 0.0181776 0 0.999835
    outer loop
      vertex 1.87141 18.9305 5.34719
      vertex 4.35702 0.000582695 5.302
      vertex 4.35702 18.1977 5.302
    endloop
  endfacet
  facet normal 0.0181776 0 0.999835
    outer loop
      vertex 4.35702 0.000582695 5.302
      vertex 1.87141 18.9305 5.34719
      vertex 1.87141 -0.85589 5.34719
    endloop
  endfacet
  facet normal 0.995276 -0 0.0970858
    outer loop
      vertex -1.8712 -0.85589 5.34719
      vertex -1.83641 18.9305 4.99054
      vertex -1.8712 18.9305 5.34719
    endloop
  endfacet
  facet normal 0.995276 -0 0.0970858
    outer loop
      vertex -1.83641 -0.85589 4.99054
      vertex -1.83641 18.9305 4.99054
      vertex -1.8712 -0.85589 5.34719
    endloop
  endfacet
  facet normal -0.0181764 0 0.999835
    outer loop
      vertex -4.35698 -0.00341415 5.302
      vertex -1.8712 18.9305 5.34719
      vertex -4.35698 18.1937 5.302
    endloop
  endfacet
  facet normal -0.0181764 0 0.999835
    outer loop
      vertex -1.8712 -0.85589 5.34719
      vertex -1.8712 18.9305 5.34719
      vertex -4.35698 -0.00341415 5.302
    endloop
  endfacet
  facet normal -1 0 -0
    outer loop
      vertex -4.35698 18.1937 5.302
      vertex -4.35698 18.1937 2.3
      vertex -4.35698 -0.00341415 2.8
    endloop
  endfacet
  facet normal -1 0 0
    outer loop
      vertex -4.35698 -0.00341415 5.302
      vertex -4.35698 18.1937 5.302
      vertex -4.35698 -0.00341415 2.8
    endloop
  endfacet
  facet normal -1 0 0
    outer loop
      vertex -4.35698 -0.00341415 0
      vertex -4.35698 18.1937 2.3
      vertex -4.35698 18.1937 0
    endloop
  endfacet
  facet normal -1 -0 0
    outer loop
      vertex -4.35698 18.1937 2.3
      vertex -4.35698 -0.00341415 0
      vertex -4.35698 -0.00341415 2.8
    endloop
  endfacet
  facet normal 1 -0 0
    outer loop
      vertex 4.35702 0.000582695 2.8
      vertex 4.35702 18.1977 2.3
      vertex 4.35702 18.1977 5.302
    endloop
  endfacet
  facet normal 1 0 0
    outer loop
      vertex 4.35702 0.000582695 2.8
      vertex 4.35702 18.1977 5.302
      vertex 4.35702 0.000582695 5.302
    endloop
  endfacet
  facet normal 1 0 0
    outer loop
      vertex 4.35702 18.1977 2.3
      vertex 4.35702 0.000582695 2.8
      vertex 4.35702 18.1977 0
    endloop
  endfacet
  facet normal 0.880845 -0 0.473405
    outer loop
      vertex -1.72986 -30.0036 4.64694
      vertex -1.55805 23.3144 4.32726
      vertex -1.72986 23.3144 4.64694
    endloop
  endfacet
  facet normal 0.880845 0 0.473405
    outer loop
      vertex -1.55805 23.3144 4.32726
      vertex -1.72986 -30.0036 4.64694
      vertex -1.55805 -30.0036 4.32726
    endloop
  endfacet
  facet normal -0.464006 0 0.885832
    outer loop
      vertex 0.729712 23.3166 3.64876
      vertex 1.04939 -30.0036 3.81621
      vertex 1.04939 23.3166 3.81621
    endloop
  endfacet
  facet normal -0.464006 0 0.885832
    outer loop
      vertex 1.04939 -30.0036 3.81621
      vertex 0.729712 23.3166 3.64876
      vertex 0.729712 -30.0036 3.64876
    endloop
  endfacet
  facet normal 0.780866 -0 0.624698
    outer loop
      vertex -1.55805 -30.0036 4.32726
      vertex -1.33188 23.3144 4.04455
      vertex -1.55805 23.3144 4.32726
    endloop
  endfacet
  facet normal 0.780866 0 0.624698
    outer loop
      vertex -1.33188 23.3144 4.04455
      vertex -1.55805 -30.0036 4.32726
      vertex -1.33188 -30.0036 4.04455
    endloop
  endfacet
  facet normal 0.0181776 0 0.999835
    outer loop
      vertex 4.35702 0.000582695 5.302
      vertex 1.87141 -0.85589 5.34719
      vertex 1.87141 -30.0036 5.34719
    endloop
  endfacet
  facet normal 0.0181776 -0 0.999835
    outer loop
      vertex 4.35702 -29.9996 5.302
      vertex 4.35702 0.000582695 5.302
      vertex 1.87141 -30.0036 5.34719
    endloop
  endfacet
  facet normal -0.631261 0 0.775571
    outer loop
      vertex 1.04939 23.3166 3.81621
      vertex 1.32993 -30.0036 4.04455
      vertex 1.32993 23.3166 4.04455
    endloop
  endfacet
  facet normal -0.631261 0 0.775571
    outer loop
      vertex 1.32993 -30.0036 4.04455
      vertex 1.04939 23.3166 3.81621
      vertex 1.04939 -30.0036 3.81621
    endloop
  endfacet
  facet normal 0.634234 0 0.773141
    outer loop
      vertex -1.33188 23.3144 4.04455
      vertex -1.05353 -30.0036 3.81621
      vertex -1.05353 23.3144 3.81621
    endloop
  endfacet
  facet normal 0.634234 0 0.773141
    outer loop
      vertex -1.05353 -30.0036 3.81621
      vertex -1.33188 23.3144 4.04455
      vertex -1.33188 -30.0036 4.04455
    endloop
  endfacet
  facet normal 0.955131 -0 0.296185
    outer loop
      vertex -1.83641 18.9305 4.99054
      vertex -1.72986 23.3144 4.64694
      vertex -1.83641 23.3144 4.99054
    endloop
  endfacet
  facet normal 0.955131 -0 0.296185
    outer loop
      vertex -1.83641 -0.85589 4.99054
      vertex -1.72986 23.3144 4.64694
      vertex -1.83641 18.9305 4.99054
    endloop
  endfacet
  facet normal 0.955131 0 0.296185
    outer loop
      vertex -1.72986 -30.0036 4.64694
      vertex -1.83641 -0.85589 4.99054
      vertex -1.83641 -30.0036 4.99054
    endloop
  endfacet
  facet normal 0.955131 0 0.296185
    outer loop
      vertex -1.83641 -0.85589 4.99054
      vertex -1.72986 -30.0036 4.64694
      vertex -1.72986 23.3144 4.64694
    endloop
  endfacet
  facet normal -0.777945 0 0.628333
    outer loop
      vertex 1.32993 -30.0036 4.04455
      vertex 1.55827 23.3166 4.32726
      vertex 1.32993 23.3166 4.04455
    endloop
  endfacet
  facet normal -0.777945 0 0.628333
    outer loop
      vertex 1.55827 23.3166 4.32726
      vertex 1.32993 -30.0036 4.04455
      vertex 1.55827 -30.0036 4.32726
    endloop
  endfacet
  facet normal 0.464003 0 0.885834
    outer loop
      vertex -1.05353 23.3144 3.81621
      vertex -0.733849 -30.0036 3.64876
      vertex -0.733849 23.3144 3.64876
    endloop
  endfacet
  facet normal 0.464003 0 0.885834
    outer loop
      vertex -0.733849 -30.0036 3.64876
      vertex -1.05353 23.3144 3.81621
      vertex -1.05353 -30.0036 3.81621
    endloop
  endfacet
  facet normal 0.995276 0 0.0970858
    outer loop
      vertex -1.83641 -0.85589 4.99054
      vertex -1.8712 -0.85589 5.34719
      vertex -1.8712 -30.0036 5.34719
    endloop
  endfacet
  facet normal 0.995276 -0 0.0970858
    outer loop
      vertex -1.83641 -30.0036 4.99054
      vertex -1.83641 -0.85589 4.99054
      vertex -1.8712 -30.0036 5.34719
    endloop
  endfacet
  facet normal -0.880857 0 0.473383
    outer loop
      vertex 1.55827 -30.0036 4.32726
      vertex 1.73007 23.3166 4.64694
      vertex 1.55827 23.3166 4.32726
    endloop
  endfacet
  facet normal -0.880857 0 0.473383
    outer loop
      vertex 1.73007 23.3166 4.64694
      vertex 1.55827 -30.0036 4.32726
      vertex 1.73007 -30.0036 4.64694
    endloop
  endfacet
  facet normal 0.301697 0 0.953404
    outer loop
      vertex -0.733849 23.3144 3.64876
      vertex -0.390247 -30.0036 3.54003
      vertex -0.390247 23.3166 3.54003
    endloop
  endfacet
  facet normal 0.301697 0 0.953404
    outer loop
      vertex -0.390247 -30.0036 3.54003
      vertex -0.733849 23.3144 3.64876
      vertex -0.733849 -30.0036 3.64876
    endloop
  endfacet
  facet normal 4.71999e-05 0 -1
    outer loop
      vertex 1.57627 -18.2 2.79986
      vertex 2 -11.6 2.79988
      vertex 2 -18.2 2.79988
    endloop
  endfacet
  facet normal 4.71999e-05 0 -1
    outer loop
      vertex 2 -11.6 2.79988
      vertex 1.57627 -18.2 2.79986
      vertex 1.57627 -11.6 2.79986
    endloop
  endfacet
  facet normal 5.09117e-05 0 -1
    outer loop
      vertex 2 -18.2 2.79988
      vertex 4.35702 -29.9996 2.8
      vertex 2 -23.2 2.79988
    endloop
  endfacet
  facet normal 5.03461e-05 -1.96065e-07 -1
    outer loop
      vertex 1.57627 -29.9996 2.79986
      vertex 2 -23.2 2.79988
      vertex 4.35702 -29.9996 2.8
    endloop
  endfacet
  facet normal 4.71999e-05 0 -1
    outer loop
      vertex 2 -23.2 2.79988
      vertex 1.57627 -29.9996 2.79986
      vertex 1.57627 -23.2 2.79986
    endloop
  endfacet
  facet normal 5.09117e-05 0 -1
    outer loop
      vertex 4.35702 -29.9996 2.8
      vertex 2 -18.2 2.79988
      vertex 4.35702 0.000582695 2.8
    endloop
  endfacet
  facet normal 5.09117e-05 0 -1
    outer loop
      vertex 2 -11.6 2.79988
      vertex 4.35702 0.000582695 2.8
      vertex 2 -18.2 2.79988
    endloop
  endfacet
  facet normal 5.09117e-05 0 -1
    outer loop
      vertex 2 -6.6 2.79988
      vertex 4.35702 0.000582695 2.8
      vertex 2 -11.6 2.79988
    endloop
  endfacet
  facet normal 4.71999e-05 0 -1
    outer loop
      vertex 1.57627 0.000582695 2.79986
      vertex 2 -6.6 2.79988
      vertex 1.57627 -6.6 2.79986
    endloop
  endfacet
  facet normal 5.03461e-05 2.01977e-07 -1
    outer loop
      vertex 2 -6.6 2.79988
      vertex 1.57627 0.000582695 2.79986
      vertex 4.35702 0.000582695 2.8
    endloop
  endfacet
  facet normal -0.0181764 0 0.999835
    outer loop
      vertex -1.8712 -0.85589 5.34719
      vertex -4.35698 -0.00341415 5.302
      vertex -4.35698 -30.0036 5.302
    endloop
  endfacet
  facet normal -0.0181764 0 0.999835
    outer loop
      vertex -1.8712 -30.0036 5.34719
      vertex -1.8712 -0.85589 5.34719
      vertex -4.35698 -30.0036 5.302
    endloop
  endfacet
  facet normal -0.956832 0 0.290642
    outer loop
      vertex 1.73007 -30.0036 4.64694
      vertex 1.83444 23.3166 4.99054
      vertex 1.73007 23.3166 4.64694
    endloop
  endfacet
  facet normal -0.956832 0 0.290642
    outer loop
      vertex 1.83444 23.3166 4.99054
      vertex 1.73007 -30.0036 4.64694
      vertex 1.83444 -30.0036 4.99054
    endloop
  endfacet
  facet normal 0.111673 0 0.993745
    outer loop
      vertex -0.390247 23.3166 3.54003
      vertex -0.00315475 -30.0036 3.49653
      vertex -0.00315475 23.3166 3.49653
    endloop
  endfacet
  facet normal 0.111673 0 0.993745
    outer loop
      vertex -0.00315475 -30.0036 3.49653
      vertex -0.390247 23.3166 3.54003
      vertex -0.390247 -30.0036 3.54003
    endloop
  endfacet
  facet normal 0 -1 0
    outer loop
      vertex 4.35702 0.000582695 0
      vertex 4.35702 0.000582695 2.8
      vertex 1.57627 0.000582695 2.79986
    endloop
  endfacet
  facet normal 0.00045856 -1 0.00045543
    outer loop
      vertex 4.35702 0.000582695 0
      vertex 1.57627 0.000582695 2.79986
      vertex 2.38419e-05 -0.00141525 0
    endloop
  endfacet
  facet normal 0.000458051 -1 0.000455717
    outer loop
      vertex 2.38419e-05 -0.00141525 0
      vertex 1.57627 0.000582695 2.79986
      vertex -0.001894 -0.00014019 2.79985
    endloop
  endfacet
  facet normal 1 0 0
    outer loop
      vertex 4.35702 0.000582695 0
      vertex 4.35702 18.1977 0
      vertex 4.35702 0.000582695 2.8
    endloop
  endfacet
  facet normal -0 -1 0
    outer loop
      vertex -1.83641 -30.0036 4.99054
      vertex -1.8712 -30.0036 5.34719
      vertex -4.35698 -30.0036 2.8
    endloop
  endfacet
  facet normal 0 -1 0
    outer loop
      vertex -4.35698 -30.0036 2.8
      vertex -1.8712 -30.0036 5.34719
      vertex -4.35698 -30.0036 5.302
    endloop
  endfacet
  facet normal 6.33639e-06 0 -1
    outer loop
      vertex -1.58008 -6.6 2.79984
      vertex -0.001894 -0.00014019 2.79985
      vertex -0.001894 -6.6 2.79985
    endloop
  endfacet
  facet normal 6.33639e-06 0 -1
    outer loop
      vertex -0.001894 -0.00014019 2.79985
      vertex -1.58008 -6.6 2.79984
      vertex -1.58008 -0.000864983 2.79984
    endloop
  endfacet
  facet normal 6.33639e-06 0 -1
    outer loop
      vertex -1.58008 -30.001 2.79984
      vertex -0.001894 -23.2 2.79985
      vertex -0.001894 -30.0003 2.79985
    endloop
  endfacet
  facet normal 6.33639e-06 0 -1
    outer loop
      vertex -0.001894 -23.2 2.79985
      vertex -1.58008 -30.001 2.79984
      vertex -1.58008 -23.2 2.79984
    endloop
  endfacet
  facet normal 6.33639e-06 0 -1
    outer loop
      vertex -1.58008 -18.2 2.79984
      vertex -0.001894 -11.6 2.79985
      vertex -0.001894 -18.2 2.79985
    endloop
  endfacet
  facet normal 6.33639e-06 0 -1
    outer loop
      vertex -0.001894 -11.6 2.79985
      vertex -1.58008 -18.2 2.79984
      vertex -1.58008 -11.6 2.79984
    endloop
  endfacet
  facet normal 0.00091799 -1 0
    outer loop
      vertex -4.35698 -0.00341415 0
      vertex -1.58008 -0.000864983 2.79984
      vertex -4.35698 -0.00341415 2.8
    endloop
  endfacet
  facet normal 0.000459254 -1 0.000454977
    outer loop
      vertex -0.001894 -0.00014019 2.79985
      vertex -1.58008 -0.000864983 2.79984
      vertex -4.35698 -0.00341415 0
    endloop
  endfacet
  facet normal 0.000458778 -1 0.000455717
    outer loop
      vertex 2.38419e-05 -0.00141525 0
      vertex -0.001894 -0.00014019 2.79985
      vertex -4.35698 -0.00341415 0
    endloop
  endfacet
  facet normal -1 0 -0
    outer loop
      vertex -4.35698 -0.00341415 5.302
      vertex -4.35698 -0.00341415 2.8
      vertex -4.35698 -30.0036 2.8
    endloop
  endfacet
  facet normal -1 -0 0
    outer loop
      vertex -4.35698 -0.00341415 5.302
      vertex -4.35698 -30.0036 2.8
      vertex -4.35698 -30.0036 5.302
    endloop
  endfacet
  facet normal -0 -1 0
    outer loop
      vertex -1.72986 -30.0036 4.64694
      vertex -1.83641 -30.0036 4.99054
      vertex -4.35698 -30.0036 2.8
    endloop
  endfacet
  facet normal 0.00145473 -0.999999 -0.000150796
    outer loop
      vertex 4.35702 -29.9996 2.8
      vertex 1.87141 -30.0036 5.34719
      vertex 1.83444 -30.0036 4.99054
    endloop
  endfacet
  facet normal 0.00160926 -0.999999 0
    outer loop
      vertex 4.35702 -29.9996 2.8
      vertex 4.35702 -29.9996 5.302
      vertex 1.87141 -30.0036 5.34719
    endloop
  endfacet
  facet normal 0.00125472 -0.999999 -0.000381126
    outer loop
      vertex 4.35702 -29.9996 2.8
      vertex 1.83444 -30.0036 4.99054
      vertex 1.73007 -30.0036 4.64694
    endloop
  endfacet
  facet normal 0.00110512 -0.999999 -0.000593904
    outer loop
      vertex 4.35702 -29.9996 2.8
      vertex 1.73007 -30.0036 4.64694
      vertex 1.55827 -30.0036 4.32726
    endloop
  endfacet
  facet normal 0.000991991 -0.999999 -0.000801214
    outer loop
      vertex 4.35702 -29.9996 2.8
      vertex 1.55827 -30.0036 4.32726
      vertex 1.32993 -30.0036 4.04455
    endloop
  endfacet
  facet normal -0 -1 0
    outer loop
      vertex -1.55805 -30.0036 4.32726
      vertex -1.72986 -30.0036 4.64694
      vertex -4.35698 -30.0036 2.8
    endloop
  endfacet
  facet normal -0 -1 0
    outer loop
      vertex -1.33188 -30.0036 4.04455
      vertex -1.55805 -30.0036 4.32726
      vertex -4.35698 -30.0036 2.8
    endloop
  endfacet
  facet normal -0 -1 0
    outer loop
      vertex -1.05353 -30.0036 3.81621
      vertex -1.33188 -30.0036 4.04455
      vertex -4.35698 -30.0036 2.8
    endloop
  endfacet
  facet normal -0 -1 0
    outer loop
      vertex -0.733849 -30.0036 3.64876
      vertex -1.05353 -30.0036 3.81621
      vertex -4.35698 -30.0036 2.8
    endloop
  endfacet
  facet normal -0 -1 0
    outer loop
      vertex -0.390247 -30.0036 3.54003
      vertex -0.733849 -30.0036 3.64876
      vertex -4.35698 -30.0036 2.8
    endloop
  endfacet
  facet normal 0.000935942 -0.999982 -0.00585033
    outer loop
      vertex -1.58008 -30.001 2.79984
      vertex -0.00315475 -30.0036 3.49653
      vertex -4.35698 -30.0036 2.8
    endloop
  endfacet
  facet normal -0 -1 0
    outer loop
      vertex -0.00315475 -30.0036 3.49653
      vertex -0.390247 -30.0036 3.54003
      vertex -4.35698 -30.0036 2.8
    endloop
  endfacet
  facet normal 0.000443572 -0.999989 -0.0047359
    outer loop
      vertex -0.001894 -30.0003 2.79985
      vertex -0.00315475 -30.0036 3.49653
      vertex -1.58008 -30.001 2.79984
    endloop
  endfacet
  facet normal 0.000877933 -0.999999 -0.00107863
    outer loop
      vertex 4.35702 -29.9996 2.8
      vertex 1.32993 -30.0036 4.04455
      vertex 1.04939 -30.0036 3.81621
    endloop
  endfacet
  facet normal 0.000762242 -0.999999 -0.00145519
    outer loop
      vertex 4.35702 -29.9996 2.8
      vertex 1.04939 -30.0036 3.81621
      vertex 0.729712 -30.0036 3.64876
    endloop
  endfacet
  facet normal 0.000632262 -0.999998 -0.00201068
    outer loop
      vertex 4.35702 -29.9996 2.8
      vertex 0.729712 -30.0036 3.64876
      vertex 0.383936 -30.0036 3.54003
    endloop
  endfacet
  facet normal 0.000443578 -0.999989 -0.0047359
    outer loop
      vertex -0.001894 -30.0003 2.79985
      vertex 1.57627 -29.9996 2.79986
      vertex -0.00315475 -30.0036 3.49653
    endloop
  endfacet
  facet normal 2.72053e-07 -0.999985 -0.00540365
    outer loop
      vertex 1.57627 -29.9996 2.79986
      vertex 4.35702 -29.9996 2.8
      vertex 0.383936 -30.0036 3.54003
    endloop
  endfacet
  facet normal 0.00051421 -0.999989 -0.00457577
    outer loop
      vertex 1.57627 -29.9996 2.79986
      vertex 0.383936 -30.0036 3.54003
      vertex -0.00315475 -30.0036 3.49653
    endloop
  endfacet
  facet normal 6.33648e-06 0 -1
    outer loop
      vertex -0.001894 -6.6 2.79985
      vertex 1.57627 0.000582695 2.79986
      vertex 1.57627 -6.6 2.79986
    endloop
  endfacet
  facet normal 6.33648e-06 0 -1
    outer loop
      vertex 1.57627 0.000582695 2.79986
      vertex -0.001894 -6.6 2.79985
      vertex -0.001894 -0.00014019 2.79985
    endloop
  endfacet
  facet normal 6.33648e-06 0 -1
    outer loop
      vertex -0.001894 -30.0003 2.79985
      vertex 1.57627 -23.2 2.79986
      vertex 1.57627 -29.9996 2.79986
    endloop
  endfacet
  facet normal 6.33648e-06 0 -1
    outer loop
      vertex 1.57627 -23.2 2.79986
      vertex -0.001894 -30.0003 2.79985
      vertex -0.001894 -23.2 2.79985
    endloop
  endfacet
  facet normal 6.33648e-06 0 -1
    outer loop
      vertex -0.001894 -18.2 2.79985
      vertex 1.57627 -11.6 2.79986
      vertex 1.57627 -18.2 2.79986
    endloop
  endfacet
  facet normal 6.33648e-06 0 -1
    outer loop
      vertex 1.57627 -11.6 2.79986
      vertex -0.001894 -18.2 2.79985
      vertex -0.001894 -11.6 2.79985
    endloop
  endfacet
  facet normal -0.299971 0 0.953948
    outer loop
      vertex 0.383936 23.3166 3.54003
      vertex 0.729712 -30.0036 3.64876
      vertex 0.729712 23.3166 3.64876
    endloop
  endfacet
  facet normal -0.299971 0 0.953948
    outer loop
      vertex 0.729712 -30.0036 3.64876
      vertex 0.383936 23.3166 3.54003
      vertex 0.383936 -30.0036 3.54003
    endloop
  endfacet
  facet normal 1 0 -0
    outer loop
      vertex 4.35702 0.000582695 2.8
      vertex 4.35702 0.000582695 5.302
      vertex 4.35702 -29.9996 5.302
    endloop
  endfacet
  facet normal 1 0 0
    outer loop
      vertex 4.35702 -29.9996 2.8
      vertex 4.35702 0.000582695 2.8
      vertex 4.35702 -29.9996 5.302
    endloop
  endfacet
  facet normal -4.76281e-05 0 -1
    outer loop
      vertex -1.58008 -30.001 2.79984
      vertex -2 -23.2 2.79986
      vertex -1.58008 -23.2 2.79984
    endloop
  endfacet
  facet normal -5.9398e-05 0 -1
    outer loop
      vertex -4.35698 -30.0036 2.8
      vertex -2 -18.2 2.79986
      vertex -2 -23.2 2.79986
    endloop
  endfacet
  facet normal -5.9398e-05 0 -1
    outer loop
      vertex -2 -18.2 2.79986
      vertex -4.35698 -30.0036 2.8
      vertex -2 -11.6 2.79986
    endloop
  endfacet
  facet normal -5.9398e-05 -0 -1
    outer loop
      vertex -4.35698 -0.00341415 2.8
      vertex -2 -11.6 2.79986
      vertex -4.35698 -30.0036 2.8
    endloop
  endfacet
  facet normal -5.76176e-05 -6.16791e-07 -1
    outer loop
      vertex -4.35698 -30.0036 2.8
      vertex -2 -23.2 2.79986
      vertex -1.58008 -30.001 2.79984
    endloop
  endfacet
  facet normal -4.76281e-05 0 -1
    outer loop
      vertex -2 -18.2 2.79986
      vertex -1.58008 -11.6 2.79984
      vertex -1.58008 -18.2 2.79984
    endloop
  endfacet
  facet normal -4.76281e-05 0 -1
    outer loop
      vertex -1.58008 -11.6 2.79984
      vertex -2 -18.2 2.79986
      vertex -2 -11.6 2.79986
    endloop
  endfacet
  facet normal -4.76281e-05 0 -1
    outer loop
      vertex -2 -6.6 2.79986
      vertex -1.58008 -0.000864983 2.79984
      vertex -1.58008 -6.6 2.79984
    endloop
  endfacet
  facet normal -5.9398e-05 0 -1
    outer loop
      vertex -2 -11.6 2.79986
      vertex -4.35698 -0.00341415 2.8
      vertex -2 -6.6 2.79986
    endloop
  endfacet
  facet normal -5.76188e-05 6.35732e-07 -1
    outer loop
      vertex -2 -6.6 2.79986
      vertex -4.35698 -0.00341415 2.8
      vertex -1.58008 -0.000864983 2.79984
    endloop
  endfacet
  facet normal -0.111674 0 0.993745
    outer loop
      vertex -0.00315475 23.3166 3.49653
      vertex 0.383936 -30.0036 3.54003
      vertex 0.383936 23.3166 3.54003
    endloop
  endfacet
  facet normal -0.111674 0 0.993745
    outer loop
      vertex 0.383936 -30.0036 3.54003
      vertex -0.00315475 23.3166 3.49653
      vertex -0.00315475 -30.0036 3.49653
    endloop
  endfacet
  facet normal -0.99467 0 0.103107
    outer loop
      vertex 1.83444 23.3166 4.99054
      vertex 1.87141 18.9305 5.34719
      vertex 1.87141 23.3166 5.34719
    endloop
  endfacet
  facet normal -0.99467 0 0.103107
    outer loop
      vertex 1.83444 23.3166 4.99054
      vertex 1.87141 -0.85589 5.34719
      vertex 1.87141 18.9305 5.34719
    endloop
  endfacet
  facet normal -0.99467 0 0.103107
    outer loop
      vertex 1.87141 -0.85589 5.34719
      vertex 1.83444 23.3166 4.99054
      vertex 1.83444 -30.0036 4.99054
    endloop
  endfacet
  facet normal -0.99467 0 0.103107
    outer loop
      vertex 1.87141 -30.0036 5.34719
      vertex 1.87141 -0.85589 5.34719
      vertex 1.83444 -30.0036 4.99054
    endloop
  endfacet
  facet normal 1 -0 0
    outer loop
      vertex 2 -11.6 2.79988
      vertex 2 -6.6 0
      vertex 2 -6.6 2.79988
    endloop
  endfacet
  facet normal 1 0 0
    outer loop
      vertex 2 -6.6 0
      vertex 2 -11.6 2.79988
      vertex 2 -11.6 0
    endloop
  endfacet
  facet normal 0 0 -1
    outer loop
      vertex -2 -11.6 0
      vertex 2 -6.6 0
      vertex 2 -11.6 0
    endloop
  endfacet
  facet normal -0 0 -1
    outer loop
      vertex 2 -6.6 0
      vertex -2 -11.6 0
      vertex -2 -6.6 0
    endloop
  endfacet
  facet normal -1 0 0
    outer loop
      vertex -2 -11.6 0
      vertex -2 -6.6 2.79986
      vertex -2 -6.6 0
    endloop
  endfacet
  facet normal -1 -0 0
    outer loop
      vertex -2 -6.6 2.79986
      vertex -2 -11.6 0
      vertex -2 -11.6 2.79986
    endloop
  endfacet
  facet normal 0 1 0
    outer loop
      vertex 2 -6.6 0
      vertex -0.001894 -6.6 2.79985
      vertex 1.57627 -6.6 2.79986
    endloop
  endfacet
  facet normal 0 1 0
    outer loop
      vertex -2 -6.6 0
      vertex -0.001894 -6.6 2.79985
      vertex 2 -6.6 0
    endloop
  endfacet
  facet normal 0 1 -0
    outer loop
      vertex 2 -6.6 0
      vertex 1.57627 -6.6 2.79986
      vertex 2 -6.6 2.79988
    endloop
  endfacet
  facet normal 0 1 0
    outer loop
      vertex -0.001894 -6.6 2.79985
      vertex -2 -6.6 0
      vertex -1.58008 -6.6 2.79984
    endloop
  endfacet
  facet normal 0 1 0
    outer loop
      vertex -1.58008 -6.6 2.79984
      vertex -2 -6.6 0
      vertex -2 -6.6 2.79986
    endloop
  endfacet
  facet normal 0 -1 0
    outer loop
      vertex -2 -11.6 2.79986
      vertex -2 -11.6 0
      vertex -1.58008 -11.6 2.79984
    endloop
  endfacet
  facet normal 0 -1 0
    outer loop
      vertex -2 -11.6 0
      vertex -0.001894 -11.6 2.79985
      vertex -1.58008 -11.6 2.79984
    endloop
  endfacet
  facet normal 0 -1 0
    outer loop
      vertex 2 -11.6 0
      vertex -0.001894 -11.6 2.79985
      vertex -2 -11.6 0
    endloop
  endfacet
  facet normal 0 -1 0
    outer loop
      vertex -0.001894 -11.6 2.79985
      vertex 2 -11.6 0
      vertex 1.57627 -11.6 2.79986
    endloop
  endfacet
  facet normal 0 -1 0
    outer loop
      vertex 1.57627 -11.6 2.79986
      vertex 2 -11.6 0
      vertex 2 -11.6 2.79988
    endloop
  endfacet
  facet normal 1 -0 0
    outer loop
      vertex 2 -23.2 2.79988
      vertex 2 -18.2 0
      vertex 2 -18.2 2.79988
    endloop
  endfacet
  facet normal 1 0 0
    outer loop
      vertex 2 -18.2 0
      vertex 2 -23.2 2.79988
      vertex 2 -23.2 0
    endloop
  endfacet
  facet normal 0 0 -1
    outer loop
      vertex -2 -23.2 0
      vertex 2 -18.2 0
      vertex 2 -23.2 0
    endloop
  endfacet
  facet normal -0 0 -1
    outer loop
      vertex 2 -18.2 0
      vertex -2 -23.2 0
      vertex -2 -18.2 0
    endloop
  endfacet
  facet normal -1 0 0
    outer loop
      vertex -2 -23.2 0
      vertex -2 -18.2 2.79986
      vertex -2 -18.2 0
    endloop
  endfacet
  facet normal -1 -0 0
    outer loop
      vertex -2 -18.2 2.79986
      vertex -2 -23.2 0
      vertex -2 -23.2 2.79986
    endloop
  endfacet
  facet normal 0 1 0
    outer loop
      vertex 2 -18.2 0
      vertex -0.001894 -18.2 2.79985
      vertex 1.57627 -18.2 2.79986
    endloop
  endfacet
  facet normal 0 1 0
    outer loop
      vertex -2 -18.2 0
      vertex -0.001894 -18.2 2.79985
      vertex 2 -18.2 0
    endloop
  endfacet
  facet normal 0 1 -0
    outer loop
      vertex 2 -18.2 0
      vertex 1.57627 -18.2 2.79986
      vertex 2 -18.2 2.79988
    endloop
  endfacet
  facet normal 0 1 0
    outer loop
      vertex -0.001894 -18.2 2.79985
      vertex -2 -18.2 0
      vertex -1.58008 -18.2 2.79984
    endloop
  endfacet
  facet normal 0 1 0
    outer loop
      vertex -1.58008 -18.2 2.79984
      vertex -2 -18.2 0
      vertex -2 -18.2 2.79986
    endloop
  endfacet
  facet normal 0 -1 0
    outer loop
      vertex -2 -23.2 2.79986
      vertex -2 -23.2 0
      vertex -1.58008 -23.2 2.79984
    endloop
  endfacet
  facet normal 0 -1 0
    outer loop
      vertex -2 -23.2 0
      vertex -0.001894 -23.2 2.79985
      vertex -1.58008 -23.2 2.79984
    endloop
  endfacet
  facet normal 0 -1 0
    outer loop
      vertex 2 -23.2 0
      vertex -0.001894 -23.2 2.79985
      vertex -2 -23.2 0
    endloop
  endfacet
  facet normal 0 -1 0
    outer loop
      vertex -0.001894 -23.2 2.79985
      vertex 2 -23.2 0
      vertex 1.57627 -23.2 2.79986
    endloop
  endfacet
  facet normal 0 -1 0
    outer loop
      vertex 1.57627 -23.2 2.79986
      vertex 2 -23.2 0
      vertex 2 -23.2 2.79988
    endloop
  endfacet
endsolid OpenSCAD_Model
